<svg width="1200" height="630" viewBox="0 0 1200 630" xmlns="http://www.w3.org/2000/svg">
  <defs>
    <linearGradient id="bg" x1="0" y1="0" x2="1" y2="1">
      <stop offset="0%" stop-color="#FBF3E7" />
      <stop offset="100%" stop-color="#F6D9C4" />
    </linearGradient>
  </defs>

  <rect width="1200" height="630" fill="url(#bg)" />

  <g fill="#E8735A">
    <path
      d="M12 2c.6 3.8 1.8 6.2 5 7.5-3.2 1.3-4.4 3.7-5 7.5-.6-3.8-1.8-6.2-5-7.5 3.2-1.3 4.4-3.7 5-7.5z"
      transform="translate(190,150) scale(2.6)"
    />
    <path
      d="M12 2c.6 3.8 1.8 6.2 5 7.5-3.2 1.3-4.4 3.7-5 7.5-.6-3.8-1.8-6.2-5-7.5 3.2-1.3 4.4-3.7 5-7.5z"
      transform="translate(960,430) scale(1.7)"
    />
  </g>

  <text
    x="600"
    y="330"
    text-anchor="middle"
    font-family="'Gowun Batang', serif"
    font-size="88"
    font-weight="700"
    fill="#4A3728"
  >마음의 초고</text>

  <path
    d="M420 400c30-60 60 60 90 0s60 60 90 0 60 60 90 0"
    fill="none"
    stroke="#E8735A"
    stroke-width="6"
    stroke-linecap="round"
    transform="translate(0,10)"
  />
</svg>
